# Blender v2.78 (sub 0) OBJ File: 'Bubbles.blend'
# www.blender.org
mtllib Bubble_Water.mtl
o fire_bubble_Icosphere
v 0.000000 0.043301 -0.025000
v -0.000000 0.050000 -0.000000
v 0.017678 0.043301 -0.017678
v 0.030619 0.025000 -0.030619
v 0.035355 -0.000000 -0.035355
v 0.030619 -0.025000 -0.030619
v 0.017678 -0.043301 -0.017678
v 0.025000 0.043301 -0.000000
v 0.043301 0.025000 -0.000000
v 0.050000 -0.000000 -0.000000
v 0.043301 -0.025000 -0.000000
v 0.025000 -0.043301 -0.000000
v 0.017678 0.043301 0.017678
v 0.030619 0.025000 0.030619
v 0.035355 -0.000000 0.035355
v 0.030619 -0.025000 0.030619
v 0.017678 -0.043301 0.017678
v 0.000000 0.043301 0.025000
v 0.000000 0.025000 0.043301
v 0.000000 -0.000000 0.050000
v -0.000000 -0.025000 0.043301
v 0.000000 -0.043301 0.025000
v -0.017678 0.043301 0.017678
v -0.030619 0.025000 0.030619
v -0.035355 -0.000000 0.035355
v -0.030619 -0.025000 0.030619
v -0.017678 -0.043301 0.017678
v -0.025000 0.043301 -0.000000
v -0.043301 0.025000 -0.000000
v -0.050000 -0.000000 -0.000000
v -0.043301 -0.025000 -0.000000
v -0.025000 -0.043301 -0.000000
v 0.000000 -0.050000 -0.000000
v -0.017678 0.043301 -0.017678
v -0.030619 0.025000 -0.030619
v -0.035355 -0.000000 -0.035355
v -0.030619 -0.025000 -0.030619
v -0.017678 -0.043301 -0.017678
v 0.000000 0.025000 -0.043301
v 0.000000 -0.000000 -0.050000
v 0.000000 -0.025000 -0.043301
v 0.000000 -0.043301 -0.025000
vt 0.6249 0.7722
vt 0.5642 0.6240
vt 0.6331 0.5423
vt 0.7807 0.6041
vt 0.5423 0.3669
vt 0.6041 0.2193
vt 0.7722 0.3751
vt 0.6240 0.4358
vt 0.7071 0.9999
vt 0.9999 0.7071
vt 0.5000 0.5000
vt 0.5000 0.5000
vt 0.7071 0.0001
vt 0.9999 0.2929
vt 0.7807 0.6041
vt 0.6331 0.5423
vt 0.7722 0.3751
vt 0.9999 0.2929
vt 0.6240 0.4358
vt 0.9999 0.7071
vt 0.6249 0.7722
vt 0.5642 0.6240
vt 0.6041 0.2193
vt 0.7071 0.0001
vt 0.5423 0.3669
vt 0.7071 0.9999
vt 0.3751 0.2278
vt 0.2929 0.0001
vt 0.4358 0.3760
vt 0.4577 0.6331
vt 0.2929 0.9999
vt 0.3959 0.7807
vt 0.3669 0.4577
vt 0.3760 0.5642
vt 0.0001 0.7071
vt 0.2278 0.6249
vt 0.2193 0.3959
vt 0.0001 0.2929
vt 0.3669 0.4577
vt 0.0001 0.2929
vt 0.2193 0.3959
vt 0.3760 0.5642
vt 0.2278 0.6249
vt 0.0001 0.7071
vt 0.4358 0.3760
vt 0.2929 0.0001
vt 0.3751 0.2278
vt 0.4577 0.6331
vt 0.3959 0.7807
vt 0.2929 0.9999
vn 0.2811 0.6786 -0.6786
vn 0.2811 -0.6786 -0.6786
vn 0.3715 0.2403 -0.8968
vn 0.1066 0.9604 -0.2573
vn 0.1066 -0.9604 -0.2573
vn 0.3715 -0.2403 -0.8968
vn 0.6786 -0.6786 -0.2811
vn 0.8968 0.2403 -0.3715
vn 0.2573 0.9604 -0.1066
vn 0.2573 -0.9604 -0.1066
vn 0.8968 -0.2403 -0.3715
vn 0.6786 0.6786 -0.2811
vn 0.6786 -0.6786 0.2811
vn 0.8968 0.2403 0.3715
vn 0.2573 0.9604 0.1066
vn 0.2573 -0.9604 0.1066
vn 0.8968 -0.2403 0.3715
vn 0.6786 0.6786 0.2811
vn 0.3715 0.2403 0.8968
vn 0.1066 0.9604 0.2573
vn 0.1066 -0.9604 0.2573
vn 0.3715 -0.2403 0.8968
vn 0.2811 0.6786 0.6786
vn 0.2811 -0.6786 0.6786
vn -0.1066 0.9604 0.2573
vn -0.1066 -0.9604 0.2573
vn -0.3715 -0.2403 0.8968
vn -0.2811 0.6786 0.6786
vn -0.2811 -0.6786 0.6786
vn -0.3715 0.2403 0.8968
vn -0.2573 -0.9604 0.1066
vn -0.8968 -0.2403 0.3715
vn -0.6786 0.6786 0.2811
vn -0.6786 -0.6786 0.2811
vn -0.8968 0.2403 0.3715
vn -0.2573 0.9604 0.1066
vn -0.2573 -0.9604 -0.1066
vn -0.8968 -0.2403 -0.3715
vn -0.6786 0.6786 -0.2811
vn -0.6786 -0.6786 -0.2811
vn -0.8968 0.2403 -0.3715
vn -0.2573 0.9604 -0.1066
vn -0.1066 -0.9604 -0.2573
vn -0.3715 -0.2403 -0.8968
vn -0.2811 0.6786 -0.6786
vn -0.2811 -0.6786 -0.6786
vn -0.3715 0.2403 -0.8968
vn -0.1066 0.9604 -0.2573
usemtl None
s off
f 39/1/1 1/2/1 3/3/1 4/4/1
f 42/5/2 41/6/2 6/7/2 7/8/2
f 40/9/3 39/1/3 4/4/3 5/10/3
f 1/2/4 2/11/4 3/3/4
f 33/12/5 42/5/5 7/8/5
f 41/6/6 40/13/6 5/14/6 6/7/6
f 7/8/7 6/7/7 11/15/7 12/16/7
f 5/10/8 4/4/8 9/17/8 10/18/8
f 3/3/9 2/11/9 8/19/9
f 33/12/10 7/8/10 12/16/10
f 6/7/11 5/14/11 10/20/11 11/15/11
f 4/4/12 3/3/12 8/19/12 9/17/12
f 12/16/13 11/15/13 16/21/13 17/22/13
f 10/18/14 9/17/14 14/23/14 15/24/14
f 8/19/15 2/11/15 13/25/15
f 33/12/16 12/16/16 17/22/16
f 11/15/17 10/20/17 15/26/17 16/21/17
f 9/17/18 8/19/18 13/25/18 14/23/18
f 15/24/19 14/23/19 19/27/19 20/28/19
f 13/25/20 2/11/20 18/29/20
f 33/12/21 17/22/21 22/30/21
f 16/21/22 15/26/22 20/31/22 21/32/22
f 14/23/23 13/25/23 18/29/23 19/27/23
f 17/22/24 16/21/24 21/32/24 22/30/24
f 18/29/25 2/11/25 23/33/25
f 33/12/26 22/30/26 27/34/26
f 21/32/27 20/31/27 25/35/27 26/36/27
f 19/27/28 18/29/28 23/33/28 24/37/28
f 22/30/29 21/32/29 26/36/29 27/34/29
f 20/28/30 19/27/30 24/37/30 25/38/30
f 33/12/31 27/34/31 32/39/31
f 26/36/32 25/35/32 30/40/32 31/41/32
f 24/37/33 23/33/33 28/42/33 29/43/33
f 27/34/34 26/36/34 31/41/34 32/39/34
f 25/38/35 24/37/35 29/43/35 30/44/35
f 23/33/36 2/11/36 28/42/36
f 33/12/37 32/39/37 38/45/37
f 31/41/38 30/40/38 36/46/38 37/47/38
f 29/43/39 28/42/39 34/48/39 35/49/39
f 32/39/40 31/41/40 37/47/40 38/45/40
f 30/44/41 29/43/41 35/49/41 36/50/41
f 28/42/42 2/11/42 34/48/42
f 33/12/43 38/45/43 42/5/43
f 37/47/44 36/46/44 40/13/44 41/6/44
f 35/49/45 34/48/45 1/2/45 39/1/45
f 38/45/46 37/47/46 41/6/46 42/5/46
f 36/50/47 35/49/47 39/1/47 40/9/47
f 34/48/48 2/11/48 1/2/48
