# Blender v2.79 (sub 0) OBJ File: 'Bubbles.blend'
# www.blender.org
mtllib Bubbles_Fire.mtl
o Icosphere.003
v 0.000000 -0.100000 0.000000
v 0.072360 -0.044722 0.052572
v -0.027639 -0.044722 0.085064
v -0.089442 -0.044722 0.000000
v -0.027639 -0.044722 -0.085064
v 0.072360 -0.044722 -0.052572
v 0.027639 0.044722 0.085064
v -0.072360 0.044722 0.052572
v -0.072360 0.044722 -0.052572
v 0.027639 0.044722 -0.085064
v 0.089442 0.044722 0.000000
v 0.000000 0.100000 0.000000
vt 0.000000 0.000000
vt 1.000000 0.000000
vt 1.000000 1.000000
vt 0.000000 0.000000
vt 1.000000 0.000000
vt 1.000000 1.000000
vt 1.000000 0.000000
vt 1.000000 1.000000
vt 1.000000 0.000000
vt 1.000000 1.000000
vt 1.000000 0.000000
vt 1.000000 0.000000
vt 1.000000 1.000000
vt 0.000000 0.000000
vt 1.000000 1.000000
vt 0.000000 0.000000
vt 1.000000 1.000000
vt 0.000000 0.000000
vt 1.000000 1.000000
vt 0.000000 0.000000
vt 1.000000 1.000000
vt 1.000000 0.000000
vt 1.000000 0.000000
vt 1.000000 0.000000
vt 1.000000 0.000000
vt 1.000000 0.000000
vt 0.000000 0.000000
vt 1.000000 1.000000
vt 0.000000 0.000000
vt 0.000000 0.000000
vt 0.000000 0.000000
vt 0.000000 0.000000
vn 0.0000 -1.0000 0.0000
vn 0.7236 -0.4472 0.5257
vn -0.2764 -0.4472 0.8506
vn 0.7236 -0.4472 -0.5257
vn -0.8944 -0.4472 0.0000
vn -0.2764 -0.4472 -0.8506
vn 0.8944 0.4472 0.0000
vn 0.2764 0.4472 0.8506
vn -0.7236 0.4472 0.5257
vn -0.7236 0.4472 -0.5257
vn 0.2764 0.4472 -0.8506
vn 0.0000 1.0000 0.0000
usemtl None
s 1
f 1/1/1 2/2/2 3/3/3
f 2/4/2 1/5/1 6/6/4
f 1/1/1 3/7/3 4/8/5
f 1/1/1 4/9/5 5/10/6
f 1/1/1 5/11/6 6/6/4
f 2/4/2 6/12/4 11/13/7
f 3/14/3 2/2/2 7/15/8
f 4/16/5 3/7/3 8/17/9
f 5/18/6 4/9/5 9/19/10
f 6/20/4 5/11/6 10/21/11
f 2/4/2 11/22/7 7/15/8
f 3/14/3 7/23/8 8/17/9
f 4/16/5 8/24/9 9/19/10
f 5/18/6 9/25/10 10/21/11
f 6/20/4 10/26/11 11/13/7
f 7/27/8 11/22/7 12/28/12
f 8/29/9 7/23/8 12/28/12
f 9/30/10 8/24/9 12/28/12
f 10/31/11 9/25/10 12/28/12
f 11/32/7 10/26/11 12/28/12
